<svg width="383" height="383" viewBox="0 0 383 383" fill="none" xmlns="http://www.w3.org/2000/svg">
<g filter="url(#filter0_d_1_141)">
<path d="M191.5 0C233.114 4.96237e-07 273.545 13.8435 306.425 39.3499C339.305 64.8563 362.766 100.576 373.113 140.883C383.459 181.19 380.102 223.794 363.571 261.983C347.041 300.172 318.275 331.777 281.806 351.82L238.94 273.822C258.098 263.293 273.21 246.69 281.894 226.628C290.578 206.566 292.341 184.185 286.906 163.011C281.471 141.837 269.146 123.072 251.873 109.673C234.6 96.2737 213.361 89.0013 191.5 89.0013V0Z" fill="#BEF3C0"/>
<path d="M281.822 351.811C249.324 369.675 212.259 377.501 175.313 374.3C138.368 371.099 103.201 357.013 74.2608 333.826C45.3203 310.638 23.9057 279.389 12.7249 244.031C1.54421 208.672 1.09954 170.793 11.4472 135.181L96.9135 160.016C91.4776 178.723 91.7112 198.622 97.5848 217.197C103.458 235.772 114.708 252.188 129.911 264.369C145.114 276.55 163.588 283.949 182.997 285.631C202.405 287.313 221.877 283.201 238.948 273.817L281.822 351.811Z" fill="#AC94F1"/>
<path d="M11.3382 135.558C21.2778 101.082 40.9003 70.1827 67.8768 46.5264L126.557 113.443C112.386 125.87 102.078 142.103 96.8563 160.213L11.3382 135.558Z" fill="#FFF0CA"/>
<path d="M66.9118 47.3785C92.673 24.4731 124.25 9.11274 158.173 2.9856L173.992 90.5697C156.172 93.7885 139.584 101.858 126.051 113.891L66.9118 47.3785Z" fill="#F9CF64"/>
<path d="M157.259 3.15308C169.951 0.795575 182.853 -0.244845 195.759 0.0483727L193.737 89.0267C186.957 88.8727 180.18 89.4193 173.512 90.6577L157.259 3.15308Z" fill="#F38FBF"/>
</g>
<defs>
<filter id="filter0_d_1_141" x="0" y="0" width="383" height="383" filterUnits="userSpaceOnUse" color-interpolation-filters="sRGB">
<feFlood flood-opacity="0" result="BackgroundImageFix"/>
<feColorMatrix in="SourceAlpha" type="matrix" values="0 0 0 0 0 0 0 0 0 0 0 0 0 0 0 0 0 0 127 0" result="hardAlpha"/>
<feOffset dy="4"/>
<feGaussianBlur stdDeviation="2"/>
<feComposite in2="hardAlpha" operator="out"/>
<feColorMatrix type="matrix" values="0 0 0 0 0 0 0 0 0 0 0 0 0 0 0 0 0 0 0.25 0"/>
<feBlend mode="normal" in2="BackgroundImageFix" result="effect1_dropShadow_1_141"/>
<feBlend mode="normal" in="SourceGraphic" in2="effect1_dropShadow_1_141" result="shape"/>
</filter>
</defs>
</svg>
