<svg width="28" height="28" viewBox="0 0 28 28" fill="none" xmlns="http://www.w3.org/2000/svg">
<path d="M4.72305 15.4311C4.62185 15.354 4.52279 15.2741 4.42597 15.1917C4.49513 15.3025 4.59649 15.3885 4.72305 15.4311ZM5.47065 4.35705H22.4689V14.3015C23.0647 13.9711 23.3848 13.746 23.604 13.6018V3.78781C23.6039 3.63716 23.5439 3.49273 23.4373 3.38625C23.3307 3.27978 23.1863 3.21997 23.0356 3.21997H4.90225C4.58781 3.21997 4.33301 3.47477 4.33301 3.78781V13.627C4.54889 13.7631 4.85885 13.9913 5.47065 14.3326V4.35705Z" fill="#9747FF"/>
<path d="M24.5815 13.4338C24.4351 13.317 24.2324 13.3176 23.9107 13.4338C23.8169 13.468 23.7219 13.5248 23.6041 13.6018C23.3848 13.746 23.0651 13.9711 22.4689 14.3015C22.285 14.4023 22.0845 14.511 21.8415 14.6328C21.7653 14.6708 21.6919 14.7019 21.6166 14.7383C20.2466 15.3834 19.0143 15.5906 19.0143 15.5906H14.9333C14.856 15.5906 14.6085 15.6382 14.4898 15.8172C14.3727 15.9958 14.3923 16.2904 14.3923 16.2904V16.7876C14.5396 16.8921 14.6953 16.9856 14.8669 17.0447C16.0973 17.4641 16.9297 17.0984 17.2929 16.5888C17.7176 15.9913 17.9338 15.6567 18.4003 15.8314C18.8667 16.0062 18.4003 17.1418 17.8179 17.7251C17.2341 18.3086 16.5343 18.7748 15.5443 18.7748C15.1282 18.7748 14.725 18.7124 14.3923 18.6415V22.8782C14.3923 24.0738 15.663 24.7128 16.5366 24.7128C17.4099 24.7128 19.1593 24.2177 20.0049 22.1191C20.8497 20.0211 19.9475 17.2524 19.9475 17.2524C19.9475 17.2524 21.3162 16.639 22.745 15.7365C24.1725 14.8335 24.5524 13.9876 24.5815 13.8689C24.6095 13.7494 24.726 13.5508 24.5815 13.4338Z" fill="#9747FF"/>
<path d="M17.8176 17.7249C18.4 17.1416 18.8665 16.0059 18.4 15.8312C17.9335 15.6565 17.7174 15.9911 17.2926 16.5886C16.9294 17.0982 16.097 17.4639 14.8667 17.0445C14.695 16.9854 14.5394 16.8919 14.3921 16.7874C13.7845 16.3554 13.3709 15.6565 13.0666 15.6565H8.98556C8.98556 15.6565 7.85352 15.465 6.55404 14.882C6.42356 14.8232 6.29224 14.765 6.15896 14.6981C5.92663 14.5816 5.69706 14.4597 5.47044 14.3324C4.85864 13.9911 4.54868 13.7631 4.3328 13.6268C4.24292 13.5699 4.16676 13.5274 4.08892 13.4994C3.7686 13.3829 3.56448 13.3829 3.4186 13.4994C3.27356 13.6164 3.38948 13.8152 3.4186 13.9342C3.441 14.0252 3.67424 14.5457 4.42548 15.1914C4.6875 15.414 4.96472 15.6181 5.25512 15.8021C6.68256 16.7057 8.0526 17.3175 8.0526 17.3175C8.0526 17.3175 7.14904 20.0855 7.9952 22.1841C8.84024 24.2825 10.5888 24.7797 11.463 24.7797C12.3374 24.7797 13.6081 24.1366 13.6081 22.9418V18.4251C13.6081 18.4251 13.9306 18.5427 14.3918 18.641C14.7244 18.7119 15.1276 18.7743 15.5437 18.7743C16.5341 18.7746 17.2338 18.3084 17.8176 17.7249ZM17.0846 9.62671C16.412 9.62678 15.767 9.89398 15.2914 10.3695C14.8157 10.8451 14.5485 11.4901 14.5483 12.1627C14.5483 13.5624 15.6837 14.6983 17.0846 14.6983C18.484 14.6983 19.6191 13.5624 19.6191 12.1627C19.6191 10.7627 18.484 9.62671 17.0846 9.62671Z" fill="#9747FF"/>
<path d="M11.0724 9.62671C9.67244 9.62671 8.5376 10.7627 8.5376 12.1627C8.5376 13.5624 9.67216 14.6983 11.0724 14.6983C12.4733 14.6983 13.6087 13.5624 13.6087 12.1627C13.6087 10.7627 12.4733 9.62671 11.0724 9.62671Z" fill="#9747FF"/>
</svg>
