<svg width="28" height="28" viewBox="0 0 28 28" fill="none" xmlns="http://www.w3.org/2000/svg">
<path d="M4.72305 15.4313C4.62185 15.3542 4.52279 15.2744 4.42597 15.1919C4.49513 15.3028 4.59649 15.3887 4.72305 15.4313ZM5.47065 4.35729H22.4689V14.3018C23.0647 13.9714 23.3848 13.7463 23.604 13.6021V3.78805C23.6039 3.6374 23.5439 3.49297 23.4373 3.3865C23.3307 3.28002 23.1863 3.22021 23.0356 3.22021H4.90225C4.58781 3.22021 4.33301 3.47501 4.33301 3.78805V13.6273C4.54889 13.7633 4.85885 13.9915 5.47065 14.3329V4.35729Z" fill="#9747FF"/>
<path d="M24.5815 13.434C24.435 13.3173 24.2323 13.3178 23.9106 13.434C23.8168 13.4682 23.7219 13.525 23.604 13.602C23.3848 13.7462 23.065 13.9714 22.4689 14.3018C22.2849 14.4026 22.0844 14.5112 21.8414 14.633C21.7652 14.6711 21.6919 14.7022 21.6166 14.7386C20.2465 15.3837 19.0142 15.5909 19.0142 15.5909H14.9332C14.856 15.5909 14.6084 15.6385 14.4897 15.8174C14.3727 15.996 14.3923 16.2906 14.3923 16.2906V16.7879C14.5396 16.8923 14.6952 16.9858 14.8669 17.0449C16.0972 17.4644 16.9296 17.0987 17.2928 16.5891C17.7176 15.9916 17.9337 15.657 18.4002 15.8317C18.8667 16.0064 18.4002 17.1421 17.8178 17.7253C17.234 18.3088 16.5343 18.775 15.5442 18.775C15.1281 18.775 14.7249 18.7126 14.3923 18.6418V22.8784C14.3923 24.074 15.6629 24.713 16.5365 24.713C17.4098 24.713 19.1593 24.218 20.0049 22.1194C20.8496 20.0213 19.9475 17.2527 19.9475 17.2527C19.9475 17.2527 21.3161 16.6392 22.745 15.7368C24.1724 14.8338 24.5524 13.9879 24.5815 13.8692C24.6095 13.7496 24.726 13.5511 24.5815 13.434Z" fill="#9747FF"/>
<path d="M17.8178 17.7246C18.4002 17.1414 18.8667 16.0057 18.4002 15.831C17.9337 15.6563 17.7176 15.9909 17.2928 16.5884C16.9296 17.098 16.0972 17.4637 14.8669 17.0442C14.6952 16.9851 14.5396 16.8916 14.3923 16.7872C13.7847 16.3551 13.3711 15.6563 13.0668 15.6563H8.98576C8.98576 15.6563 7.85372 15.4647 6.55424 14.8818C6.42376 14.823 6.29244 14.7647 6.15916 14.6978C5.92682 14.5813 5.69725 14.4594 5.47064 14.3321C4.85884 13.9908 4.54888 13.7629 4.333 13.6265C4.24312 13.5697 4.16696 13.5271 4.08912 13.4991C3.7688 13.3827 3.56468 13.3827 3.4188 13.4991C3.27376 13.6162 3.38968 13.815 3.4188 13.934C3.4412 14.025 3.67444 14.5455 4.42568 15.1912C4.6877 15.4138 4.96492 15.6178 5.25532 15.8019C6.68276 16.7054 8.0528 17.3172 8.0528 17.3172C8.0528 17.3172 7.14924 20.0853 7.9954 22.1839C8.84044 24.2822 10.589 24.7795 11.4632 24.7795C12.3376 24.7795 13.6083 24.1363 13.6083 22.9416V18.4249C13.6083 18.4249 13.9308 18.5425 14.392 18.6408C14.7246 18.7116 15.1278 18.7741 15.5439 18.7741C16.5343 18.7743 17.234 18.3081 17.8178 17.7246ZM17.0848 9.62646C16.4122 9.62654 15.7672 9.89373 15.2915 10.3693C14.8159 10.8449 14.5487 11.4898 14.5485 12.1624C14.5485 13.5621 15.6839 14.6981 17.0848 14.6981C18.4842 14.6981 19.6193 13.5621 19.6193 12.1624C19.6193 10.7624 18.4842 9.62646 17.0848 9.62646Z" fill="#9747FF"/>
<path d="M11.0723 9.62646C9.67232 9.62646 8.53748 10.7624 8.53748 12.1624C8.53748 13.5621 9.67204 14.6981 11.0723 14.6981C12.4732 14.6981 13.6086 13.5621 13.6086 12.1624C13.6086 10.7624 12.4732 9.62646 11.0723 9.62646Z" fill="#9747FF"/>
</svg>
