<svg width="37" height="166" viewBox="0 0 37 166" fill="none" xmlns="http://www.w3.org/2000/svg">
<path d="M33.1822 14.0919C33.1822 6.31319 25.9467 0 17.0315 0C8.11636 0 0.880859 6.31319 0.880859 14.0919C0.880859 20.9124 6.43669 26.5915 13.8014 27.902V18.3195H10.5713V14.0919H13.8014V10.569C13.8014 7.84921 16.337 5.63677 19.4541 5.63677H23.4918V9.86436H20.2617C19.3734 9.86436 18.6466 10.4985 18.6466 11.2735V14.0919H23.4918V18.3195H18.6466V28.1134C26.8027 27.4088 33.1822 21.4056 33.1822 14.0919Z" fill="black" fill-opacity="0.7"/>
<path d="M9.58028 94.2148H23.4552C28.7408 94.2148 33.0354 97.8787 33.0354 102.388V114.225C33.0354 116.393 32.0261 118.472 30.2294 120.005C28.4328 121.538 25.996 122.399 23.4552 122.399H9.58028C4.29461 122.399 0 118.735 0 114.225V102.388C0 100.22 1.00935 98.1415 2.806 96.6088C4.60265 95.076 7.03943 94.2148 9.58028 94.2148ZM9.24992 97.0332C7.67285 97.0332 6.16036 97.5677 5.0452 98.5191C3.93004 99.4705 3.30354 100.761 3.30354 102.106V114.507C3.30354 117.312 5.9629 119.58 9.24992 119.58H23.7855C25.3626 119.58 26.8751 119.046 27.9902 118.094C29.1054 117.143 29.7319 115.853 29.7319 114.507V102.106C29.7319 99.302 27.0725 97.0332 23.7855 97.0332H9.24992ZM25.1895 99.147C25.7371 99.147 26.2623 99.3326 26.6495 99.6629C27.0367 99.9933 27.2542 100.441 27.2542 100.909C27.2542 101.376 27.0367 101.824 26.6495 102.154C26.2623 102.484 25.7371 102.67 25.1895 102.67C24.6419 102.67 24.1168 102.484 23.7295 102.154C23.3423 101.824 23.1248 101.376 23.1248 100.909C23.1248 100.441 23.3423 99.9933 23.7295 99.6629C24.1168 99.3326 24.6419 99.147 25.1895 99.147ZM16.5177 101.261C18.7081 101.261 20.8088 102.003 22.3576 103.325C23.9065 104.646 24.7766 106.438 24.7766 108.307C24.7766 110.175 23.9065 111.968 22.3576 113.289C20.8088 114.61 18.7081 115.353 16.5177 115.353C14.3273 115.353 12.2267 114.61 10.6778 113.289C9.12899 111.968 8.25886 110.175 8.25886 108.307C8.25886 106.438 9.12899 104.646 10.6778 103.325C12.2267 102.003 14.3273 101.261 16.5177 101.261ZM16.5177 104.079C15.2035 104.079 13.9431 104.525 13.0138 105.317C12.0845 106.11 11.5624 107.186 11.5624 108.307C11.5624 109.428 12.0845 110.503 13.0138 111.296C13.9431 112.089 15.2035 112.534 16.5177 112.534C17.832 112.534 19.0924 112.089 20.0217 111.296C20.951 110.503 21.473 109.428 21.473 108.307C21.473 107.186 20.951 106.11 20.0217 105.317C19.0924 104.525 17.832 104.079 16.5177 104.079Z" fill="black" fill-opacity="0.7"/>
<path d="M33.7872 51.939C32.5436 52.4322 31.2031 52.7563 29.8141 52.9113C31.2354 52.1645 32.3336 50.9807 32.8504 49.5575C31.5099 50.2621 30.0241 50.7553 28.4575 51.0371C27.1816 49.8252 25.3888 49.1206 23.3539 49.1206C19.5585 49.1206 16.4575 51.8263 16.4575 55.166C16.4575 55.6452 16.5221 56.1102 16.6352 56.5471C10.8855 56.2934 5.76579 53.8837 2.358 50.2339C1.76042 51.1217 1.42126 52.1645 1.42126 53.2636C1.42126 55.3633 2.63256 57.2235 4.50603 58.2804C3.35934 58.2804 2.29339 57.9985 1.35666 57.5758V57.618C1.35666 60.5492 3.74695 63.0012 6.91248 63.5507C5.89617 63.7934 4.8292 63.8272 3.79541 63.6494C4.23407 64.8507 5.09317 65.9019 6.25195 66.6551C7.41072 67.4083 8.81091 67.8258 10.2557 67.8488C7.80663 69.5404 4.7709 70.4548 1.64737 70.4417C1.09824 70.4417 0.549122 70.4135 0 70.3571C3.06863 72.0764 6.71867 73.0769 10.6271 73.0769C23.3539 73.0769 30.3471 63.8608 30.3471 55.8706C30.3471 55.6029 30.3471 55.3492 30.3309 55.0815C31.6876 54.236 32.8504 53.165 33.7872 51.939Z" fill="black" fill-opacity="0.7"/>
<path d="M19.0554 143.335H19.2563C21.1119 143.341 30.514 143.4 33.0491 143.993C33.8155 144.173 34.5139 144.526 35.0744 145.015C35.6349 145.504 36.038 146.113 36.2434 146.78C36.4714 147.526 36.6317 148.513 36.74 149.532L36.7626 149.736L36.8122 150.246L36.8303 150.45C36.977 152.244 36.9951 153.924 36.9974 154.291V154.439C36.9951 154.819 36.9748 156.613 36.8122 158.482L36.7942 158.688L36.7739 158.892C36.661 160.015 36.4939 161.13 36.2434 161.95C36.0386 162.617 35.6358 163.226 35.0751 163.715C34.5145 164.205 33.8158 164.557 33.0491 164.737C30.4305 165.35 20.4775 165.393 19.0983 165.395H18.7777C18.0802 165.395 15.1952 165.383 12.1702 165.293L11.7865 165.281L11.5901 165.273L11.2041 165.259L10.818 165.246C8.31229 165.15 5.9262 164.995 4.82683 164.735C4.06042 164.555 3.36191 164.203 2.8013 163.714C2.24069 163.225 1.83766 162.617 1.63258 161.95C1.38201 161.132 1.21496 160.015 1.10209 158.892L1.08403 158.686L1.06597 158.482C0.954559 157.152 0.892823 155.819 0.880859 154.486L0.880859 154.244C0.885374 153.822 0.903434 152.364 1.02533 150.754L1.04114 150.552L1.04791 150.45L1.06597 150.246L1.11563 149.736L1.13821 149.532C1.24656 148.513 1.40684 147.524 1.63484 146.78C1.83957 146.112 2.24245 145.504 2.80308 145.014C3.36372 144.525 4.0624 144.173 4.82909 143.993C5.92845 143.737 8.31455 143.58 10.8203 143.482L11.2041 143.468L11.5923 143.457L11.7865 143.451L12.1725 143.437C14.3209 143.377 16.4702 143.344 18.6197 143.337H19.0554V143.335ZM15.3284 149.636V159.092L24.7125 154.366L15.3284 149.636Z" fill="black" fill-opacity="0.7"/>
</svg>
