<svg width="32" height="32" viewBox="0 0 32 32" fill="none" xmlns="http://www.w3.org/2000/svg">
<path opacity="0.4" d="M29.3337 15.9998C29.3337 23.3638 23.3643 29.3332 16.0003 29.3332C8.63633 29.3332 2.66699 23.3638 2.66699 15.9998C2.66699 8.63717 8.63633 2.6665 16.0003 2.6665C23.3643 2.6665 29.3337 8.63717 29.3337 15.9998Z" fill="#716FE7"/>
<path d="M21.1473 11.6066L18.9873 18.4332C18.9073 18.7132 18.6806 18.9399 18.4006 19.0212L11.6006 21.1532C11.1473 21.3012 10.7073 20.8599 10.8539 20.4066L12.9873 13.5666C13.0673 13.2866 13.2939 13.0732 13.5739 12.9799L20.4006 10.8466C20.8673 10.6999 21.2939 11.1399 21.1473 11.6066Z" fill="#716FE7"/>
</svg>
