<svg width="32" height="32" viewBox="0 0 32 32" fill="none" xmlns="http://www.w3.org/2000/svg">
<path opacity="0.4" d="M22.2194 29.3194H9.78016C7.85147 29.4393 5.9574 28.7707 4.53219 27.468C3.22952 26.0415 2.56087 24.1474 2.68075 22.2201V9.7796C2.56087 7.85226 3.22819 5.95821 4.53086 4.53169C5.9574 3.22903 7.85147 2.56039 9.78016 2.68026H22.2194C24.1455 2.56039 26.0382 3.2277 27.4634 4.53035C28.7648 5.95821 29.4347 7.85093 29.3202 9.7796V22.2201C29.4387 24.1474 28.7714 26.0415 27.4687 27.468C26.0422 28.7707 24.1481 29.4393 22.2194 29.3194Z" fill="#716FE7"/>
<path d="M22.7397 13.8633L14.0027 22.6437C13.5483 23.086 12.9511 23.3332 12.328 23.3332H9.27716C9.10839 23.3332 8.9526 23.2681 8.83576 23.1511C8.71892 23.034 8.66699 22.8779 8.66699 22.7088L8.74489 19.6259C8.75787 19.0145 9.00453 18.4421 9.43294 18.0128L15.6255 11.808C15.7293 11.7039 15.9111 11.7039 16.0149 11.808L18.1869 13.9712C18.3297 14.113 18.5374 14.2054 18.7581 14.2054C19.2384 14.2054 19.6149 13.8151 19.6149 13.3468C19.6149 13.1127 19.524 12.9046 19.3812 12.7485C19.3423 12.6964 17.2742 10.6372 17.2742 10.6372C17.1444 10.5072 17.1444 10.286 17.2742 10.1559L18.144 9.27138C18.9489 8.46488 20.2471 8.46488 21.052 9.27138L22.7397 10.9624C23.5316 11.7559 23.5316 13.0567 22.7397 13.8633Z" fill="#716FE7"/>
</svg>
