<svg width="28" height="28" viewBox="0 0 28 28" fill="none" xmlns="http://www.w3.org/2000/svg">
<path d="M22.1667 15.1666H19.8333C19.5028 15.1666 19.2259 15.0546 19.0027 14.8306C18.7794 14.6066 18.6674 14.3297 18.6667 13.9999C18.6667 13.6694 18.7787 13.3925 19.0027 13.1693C19.2267 12.946 19.5036 12.834 19.8333 12.8333H22.1667C22.4972 12.8333 22.7745 12.9453 22.9985 13.1693C23.2225 13.3933 23.3341 13.6701 23.3333 13.9999C23.3333 14.3305 23.2213 14.6078 22.9973 14.8318C22.7733 15.0558 22.4964 15.1674 22.1667 15.1666ZM17.0333 19.5999C17.2278 19.3277 17.4806 19.1721 17.7917 19.1333C18.1028 19.0944 18.3944 19.1721 18.6667 19.3666L20.5333 20.7666C20.8056 20.961 20.9611 21.2138 21 21.5249C21.0389 21.836 20.9611 22.1277 20.7667 22.3999C20.5722 22.6721 20.3194 22.8277 20.0083 22.8666C19.6972 22.9055 19.4056 22.8277 19.1333 22.6333L17.2667 21.2333C16.9944 21.0388 16.8389 20.786 16.8 20.4749C16.7611 20.1638 16.8389 19.8721 17.0333 19.5999ZM20.5333 7.23326L18.6667 8.63326C18.3944 8.8277 18.1028 8.90548 17.7917 8.86659C17.4806 8.8277 17.2278 8.67215 17.0333 8.39992C16.8389 8.1277 16.7611 7.83604 16.8 7.52492C16.8389 7.21381 16.9944 6.96104 17.2667 6.76659L19.1333 5.36659C19.4056 5.17215 19.6972 5.09437 20.0083 5.13326C20.3194 5.17215 20.5722 5.3277 20.7667 5.59992C20.9611 5.87215 21.0389 6.16381 21 6.47492C20.9611 6.78604 20.8056 7.03881 20.5333 7.23326ZM8.16667 17.4999H4.66667C4.33611 17.4999 4.05922 17.3879 3.836 17.1639C3.61278 16.9399 3.50078 16.663 3.5 16.3333V11.6666C3.5 11.336 3.612 11.0591 3.836 10.8359C4.06 10.6127 4.33689 10.5007 4.66667 10.4999H8.16667L12.0167 6.64992C12.3861 6.28048 12.8092 6.19765 13.286 6.40142C13.7628 6.6052 14.0008 6.96998 14 7.49576V20.5041C14 21.0291 13.762 21.3939 13.286 21.5984C12.81 21.803 12.3869 21.7201 12.0167 21.3499L8.16667 17.4999Z" fill="#9747FF"/>
</svg>
